<?xml version="1.0" encoding="utf-8"?>
<!-- Generator: Adobe Illustrator 18.1.1, SVG Export Plug-In . SVG Version: 6.00 Build 0)  -->
<svg version="1.1" xmlns="http://www.w3.org/2000/svg" xmlns:xlink="http://www.w3.org/1999/xlink" x="0px" y="0px"
	 viewBox="0 0 3401.1 635.5" enable-background="new 0 0 3401.1 635.5" xml:space="preserve">
<g id="Layer_1_copy_xA0_Image_1_" display="none">
	<image display="inline" overflow="visible" width="4600" height="2500" id="Layer_1_copy_xA0_Image" xlink:href="C652F96C.png" >
	</image>
</g>
<g id="Group_6_1_" display="none">
	<g id="Group_4_1_" display="inline" opacity="0.8392">
		<g id="trail_1_" opacity="0.7216">
			<g id="Group_1_1_" opacity="0.7804">
				<g id="Layer_6_xA0_Image_1_" opacity="0.8588">
					
						<image overflow="visible" width="47" height="47" id="Layer_6_xA0_Image" xlink:href="C652F96E.png"  transform="matrix(1 0 0 1 785 1112)">
					</image>
				</g>
				<g id="Layer_6_copy_xA0_Image_1_">
					
						<image overflow="visible" width="47" height="47" id="Layer_6_copy_xA0_Image" xlink:href="C652F96A.png"  transform="matrix(1 0 0 1 785 1159)">
					</image>
				</g>
				<g id="Layer_6_copy_2_xA0_Image_1_" opacity="0.9216">
					
						<image overflow="visible" width="47" height="47" id="Layer_6_copy_2_xA0_Image" xlink:href="C652F96B.png"  transform="matrix(1 0 0 1 785 1206)">
					</image>
				</g>
				<g id="Layer_6_copy_3_xA0_Image_1_" opacity="0.949">
					
						<image overflow="visible" width="47" height="47" id="Layer_6_copy_3_xA0_Image" xlink:href="C652F964.png"  transform="matrix(1 0 0 1 785 1253)">
					</image>
				</g>
				<g id="Layer_6_copy_4_xA0_Image_1_">
					
						<image overflow="visible" width="47" height="47" id="Layer_6_copy_4_xA0_Image" xlink:href="C652F979.png"  transform="matrix(1 0 0 1 785 1300)">
					</image>
				</g>
				<g id="Layer_6_copy_5_xA0_Image_1_" opacity="0.9294">
					
						<image overflow="visible" width="47" height="47" id="Layer_6_copy_5_xA0_Image" xlink:href="C652F97A.png"  transform="matrix(1 0 0 1 785 1347)">
					</image>
				</g>
				<g id="Layer_6_copy_6_xA0_Image_1_" opacity="0.8118">
					
						<image overflow="visible" width="47" height="47" id="Layer_6_copy_6_xA0_Image" xlink:href="C652F97B.png"  transform="matrix(1 0 0 1 785 1394)">
					</image>
				</g>
				<g id="Layer_6_copy_7_xA0_Image_1_" opacity="0.7608">
					
						<image overflow="visible" width="47" height="47" id="Layer_6_copy_7_xA0_Image" xlink:href="C652F97C.png"  transform="matrix(1 0 0 1 785 1441)">
					</image>
				</g>
				<g id="Layer_6_copy_8_xA0_Image_1_" opacity="0.8118">
					
						<image overflow="visible" width="47" height="46" id="Layer_6_copy_8_xA0_Image" xlink:href="A9FE0BAF.png"  transform="matrix(1 0 0 1 785 1488)">
					</image>
				</g>
			</g>
			<g id="Group_1_copy_4_1_" opacity="0.251">
				<g id="Layer_6_copy_36_xA0_Image_1_" opacity="0.8588">
					
						<image overflow="visible" width="47" height="47" id="Layer_6_copy_36_xA0_Image" xlink:href="A9FE0BAB.png"  transform="matrix(1 0 0 1 738 1112)">
					</image>
				</g>
				<g id="Layer_6_copy_37_xA0_Image_1_">
					
						<image overflow="visible" width="47" height="47" id="Layer_6_copy_37_xA0_Image" xlink:href="A9FE0BB6.png"  transform="matrix(1 0 0 1 738 1159)">
					</image>
				</g>
				<g id="Layer_6_copy_38_xA0_Image_1_" opacity="0.9216">
					
						<image overflow="visible" width="47" height="47" id="Layer_6_copy_38_xA0_Image" xlink:href="A9FE0BB7.png"  transform="matrix(1 0 0 1 736 1206)">
					</image>
				</g>
				<g id="Layer_6_copy_39_xA0_Image_1_" opacity="0.949">
					
						<image overflow="visible" width="47" height="47" id="Layer_6_copy_39_xA0_Image" xlink:href="A9FE0BA7.png"  transform="matrix(1 0 0 1 738 1253)">
					</image>
				</g>
				<g id="Layer_6_copy_40_xA0_Image_1_">
					
						<image overflow="visible" width="47" height="47" id="Layer_6_copy_40_xA0_Image" xlink:href="A9FE0BBD.png"  transform="matrix(1 0 0 1 738 1300)">
					</image>
				</g>
				<g id="Layer_6_copy_41_xA0_Image_1_" opacity="0.9294">
					
						<image overflow="visible" width="47" height="47" id="Layer_6_copy_41_xA0_Image" xlink:href="A9FE0BBF.png"  transform="matrix(1 0 0 1 738 1347)">
					</image>
				</g>
				<g id="Layer_6_copy_42_xA0_Image_1_" opacity="0.8118">
					
						<image overflow="visible" width="47" height="47" id="Layer_6_copy_42_xA0_Image" xlink:href="A9FE0BBC.png"  transform="matrix(1 0 0 1 732 1394)">
					</image>
				</g>
				<g id="Layer_6_copy_43_xA0_Image_1_" opacity="0.7608">
					
						<image overflow="visible" width="47" height="47" id="Layer_6_copy_43_xA0_Image" xlink:href="A9FE0BB4.png"  transform="matrix(1 0 0 1 738 1441)">
					</image>
				</g>
				<g id="Layer_6_copy_44_xA0_Image_1_" opacity="0.8118">
					
						<image overflow="visible" width="47" height="46" id="Layer_6_copy_44_xA0_Image" xlink:href="A9FE0BB5.png"  transform="matrix(1 0 0 1 738 1488)">
					</image>
				</g>
			</g>
			<g id="Group_1_copy_5_1_" opacity="0.1412">
				<g id="Layer_6_copy_45_xA0_Image_1_" opacity="0.8588">
					
						<image overflow="visible" width="47" height="47" id="Layer_6_copy_45_xA0_Image" xlink:href="A9FE0BE9.png"  transform="matrix(1 0 0 1 684 1112)">
					</image>
				</g>
				<g id="Layer_6_copy_46_xA0_Image_1_">
					
						<image overflow="visible" width="47" height="47" id="Layer_6_copy_46_xA0_Image" xlink:href="A9FE0BEA.png"  transform="matrix(1 0 0 1 679 1159)">
					</image>
				</g>
				<g id="Layer_6_copy_47_xA0_Image_1_" opacity="0.9216">
					
						<image overflow="visible" width="47" height="47" id="Layer_6_copy_47_xA0_Image" xlink:href="A9FE0BEB.png"  transform="matrix(1 0 0 1 651 1206)">
					</image>
				</g>
				<g id="Layer_6_copy_48_xA0_Image_1_" opacity="0.949">
					
						<image overflow="visible" width="47" height="47" id="Layer_6_copy_48_xA0_Image" xlink:href="A9FE0BEC.png"  transform="matrix(1 0 0 1 681 1253)">
					</image>
				</g>
				<g id="Layer_6_copy_49_xA0_Image_1_">
					
						<image overflow="visible" width="47" height="47" id="Layer_6_copy_49_xA0_Image" xlink:href="A9FE0BED.png"  transform="matrix(1 0 0 1 690 1300)">
					</image>
				</g>
				<g id="Layer_6_copy_50_xA0_Image_1_" opacity="0.9294">
					
						<image overflow="visible" width="47" height="47" id="Layer_6_copy_50_xA0_Image" xlink:href="A9FE0BEE.png"  transform="matrix(1 0 0 1 671 1347)">
					</image>
				</g>
				<g id="Layer_6_copy_51_xA0_Image_1_" opacity="0.8118">
					
						<image overflow="visible" width="47" height="47" id="Layer_6_copy_51_xA0_Image" xlink:href="A9FE0BEF.png"  transform="matrix(1 0 0 1 683 1394)">
					</image>
				</g>
				<g id="Layer_6_copy_52_xA0_Image_1_" opacity="0.7608">
					
						<image overflow="visible" width="47" height="47" id="Layer_6_copy_52_xA0_Image" xlink:href="A9FE0BCC.png"  transform="matrix(1 0 0 1 686 1441)">
					</image>
				</g>
				<g id="Layer_6_copy_53_xA0_Image_1_" opacity="0.8118">
					
						<image overflow="visible" width="47" height="46" id="Layer_6_copy_53_xA0_Image" xlink:href="A9FE0BF1.png"  transform="matrix(1 0 0 1 661 1488)">
					</image>
				</g>
			</g>
			<g id="Group_1_copy_6_1_" opacity="5.098039e-002">
				<g id="Layer_6_copy_54_xA0_Image_1_" opacity="0.8588">
					
						<image overflow="visible" width="47" height="47" id="Layer_6_copy_54_xA0_Image" xlink:href="A9FE0BF2.png"  transform="matrix(1 0 0 1 604 1112)">
					</image>
				</g>
				<g id="Layer_6_copy_55_xA0_Image_1_">
					
						<image overflow="visible" width="47" height="47" id="Layer_6_copy_55_xA0_Image" xlink:href="A9FE0BCA.png"  transform="matrix(1 0 0 1 614 1159)">
					</image>
				</g>
				<g id="Layer_6_copy_56_xA0_Image_1_" opacity="0.9216">
					
						<image overflow="visible" width="47" height="47" id="Layer_6_copy_56_xA0_Image" xlink:href="A9FE0BC9.png"  transform="matrix(1 0 0 1 564 1206)">
					</image>
				</g>
				<g id="Layer_6_copy_57_xA0_Image_1_" opacity="0.949">
					
						<image overflow="visible" width="47" height="47" id="Layer_6_copy_57_xA0_Image" xlink:href="A9FE0BD8.png"  transform="matrix(1 0 0 1 603 1253)">
					</image>
				</g>
				<g id="Layer_6_copy_58_xA0_Image_1_">
					
						<image overflow="visible" width="47" height="47" id="Layer_6_copy_58_xA0_Image" xlink:href="A9FE0BC1.png"  transform="matrix(1 0 0 1 614 1300)">
					</image>
				</g>
				<g id="Layer_6_copy_60_xA0_Image_1_" opacity="0.8118">
					
						<image overflow="visible" width="47" height="47" id="Layer_6_copy_60_xA0_Image" xlink:href="A9FE0BC2.png"  transform="matrix(1 0 0 1 596 1394)">
					</image>
				</g>
				<g id="Layer_6_copy_61_xA0_Image_1_" opacity="0.7608">
					
						<image overflow="visible" width="47" height="47" id="Layer_6_copy_61_xA0_Image" xlink:href="A9FE0BC3.png"  transform="matrix(1 0 0 1 624 1441)">
					</image>
				</g>
				<g id="Layer_6_copy_62_xA0_Image_1_" opacity="0.8118">
					
						<image overflow="visible" width="47" height="46" id="Layer_6_copy_62_xA0_Image" xlink:href="A9FE0BC4.png"  transform="matrix(1 0 0 1 574 1488)">
					</image>
				</g>
			</g>
			<g id="Layer_6_copy_59_xA0_Image_1_" opacity="0.1412">
				
					<image overflow="visible" width="47" height="47" id="Layer_6_copy_59_xA0_Image" xlink:href="A9FE0BC5.png"  transform="matrix(1 0 0 1 544 1347)">
				</image>
			</g>
			<g id="Group_1_copy_7_1_" opacity="1.960784e-002">
				<g id="Layer_6_copy_63_xA0_Image_1_" opacity="0.8588">
					
						<image overflow="visible" width="47" height="47" id="Layer_6_copy_63_xA0_Image" xlink:href="A9FE0BC6.png"  transform="matrix(1 0 0 1 457 1112)">
					</image>
				</g>
				<g id="Layer_6_copy_64_xA0_Image_1_">
					
						<image overflow="visible" width="47" height="47" id="Layer_6_copy_64_xA0_Image" xlink:href="A9FE0BC7.png"  transform="matrix(1 0 0 1 367 1159)">
					</image>
				</g>
				<g id="Layer_6_copy_65_xA0_Image_1_" opacity="0.9216">
					
						<image overflow="visible" width="47" height="47" id="Layer_6_copy_65_xA0_Image" xlink:href="A9FE0C38.png"  transform="matrix(1 0 0 1 487 1206)">
					</image>
				</g>
				<g id="Layer_6_copy_66_xA0_Image_1_" opacity="0.949">
					
						<image overflow="visible" width="47" height="47" id="Layer_6_copy_66_xA0_Image" xlink:href="A9FE0C3E.png"  transform="matrix(1 0 0 1 497 1253)">
					</image>
				</g>
				<g id="Layer_6_copy_67_xA0_Image_1_">
					
						<image overflow="visible" width="47" height="47" id="Layer_6_copy_67_xA0_Image" xlink:href="A9FE0C25.png"  transform="matrix(1 0 0 1 427 1300)">
					</image>
				</g>
				<g id="Layer_6_copy_69_xA0_Image_1_" opacity="0.8118">
					
						<image overflow="visible" width="47" height="47" id="Layer_6_copy_69_xA0_Image" xlink:href="A9FE0C26.png"  transform="matrix(1 0 0 1 477 1394)">
					</image>
				</g>
				<g id="Layer_6_copy_70_xA0_Image_1_" opacity="0.7608">
					
						<image overflow="visible" width="47" height="47" id="Layer_6_copy_70_xA0_Image" xlink:href="A9FE0C27.png"  transform="matrix(1 0 0 1 507 1441)">
					</image>
				</g>
				<g id="Layer_6_copy_71_xA0_Image_1_" opacity="0.8118">
					
						<image overflow="visible" width="47" height="46" id="Layer_6_copy_71_xA0_Image" xlink:href="A9FE0C36.png"  transform="matrix(1 0 0 1 477 1488)">
					</image>
				</g>
			</g>
			<g id="Layer_6_copy_68_xA0_Image_1_" opacity="5.882353e-002">
				
					<image overflow="visible" width="47" height="47" id="Layer_6_copy_68_xA0_Image" xlink:href="A9FE0C29.png"  transform="matrix(1 0 0 1 497 1347)">
				</image>
			</g>
			<g id="Group_5_1_" opacity="0.349">
				<g id="Group_5_copy_xA0_Image_1_" opacity="0.349">
				</g>
				<g id="Layer_6_copy_72_xA0_Image_1_" opacity="0.2196">
					
						<image overflow="visible" width="47" height="46" id="Layer_6_copy_72_xA0_Image" xlink:href="A9FE0C28.png"  transform="matrix(1 0 0 1 1078 1016)">
					</image>
				</g>
				<g id="Layer_6_copy_73_xA0_Image_1_" opacity="0.1098">
					
						<image overflow="visible" width="47" height="46" id="Layer_6_copy_73_xA0_Image" xlink:href="A9FE0C2F.png"  transform="matrix(1 0 0 1 1026 1016)">
					</image>
				</g>
				<g id="Layer_6_copy_74_xA0_Image_1_" opacity="0.1412">
					
						<image overflow="visible" width="47" height="46" id="Layer_6_copy_74_xA0_Image" xlink:href="A9FE0C2E.png"  transform="matrix(1 0 0 1 917 1016)">
					</image>
				</g>
				<g id="Layer_6_copy_75_xA0_Image_1_" opacity="5.098039e-002">
					
						<image overflow="visible" width="47" height="46" id="Layer_6_copy_75_xA0_Image" xlink:href="A9FE0C0B.png"  transform="matrix(1 0 0 1 870 1016)">
					</image>
				</g>
				<g id="Layer_6_copy_76_xA0_Image_1_" opacity="3.137255e-002">
					
						<image overflow="visible" width="47" height="46" id="Layer_6_copy_76_xA0_Image" xlink:href="A9FE0C0C.png"  transform="matrix(1 0 0 1 507 1016)">
					</image>
				</g>
			</g>
		</g>
		<g id="Layer_2_copy_5_xA0_Image_1_" display="none">
			
				<image display="inline" overflow="visible" width="3292" height="437" id="Layer_2_copy_5_xA0_Image" xlink:href="A9FE0C0F.png"  transform="matrix(1 0 0 1 832 971)">
			</image>
		</g>
	</g>
</g>
<g id="Layer_6_xA0_Image_copy" opacity="0.8588">
</g>
<g id="Layer_63">
	<path fill="#111111" d="M71.5,419.7c0.6,0,1.1,0,1.1,0c20.4,32.2,49.4,48.3,87,48.3c41,0,73.3-14.6,96.9-43.7
		c23.6-29.1,35.4-67.9,35.4-116.3c0-43.5-10.5-78.3-31.5-104.2c-21-25.9-50.2-38.9-87.6-38.9c-44,0-74.7,15.6-100.3,43.3 M220.3,397
		c-16,21.6-38,32.3-66.1,32.3c-24,0-43.8-8.4-59.3-25.1s-23.4-37.1-23.4-61.1v-40.6c0-28.4,8.2-52,24.6-70.8
		c16.4-18.8,38.1-28.2,65.1-28.2c25.5,0,45.7,9.2,60.6,27.5c14.9,18.3,22.4,43.7,22.4,76C244.2,345.4,236.2,375.4,220.3,397z"/>
	<path fill="#111111" d="M411.7,461.1c-15.4,0-30.8,0-46.2,0c0-96.5,0-193,0-289.5c15.4,0,30.8,0,46.2,0
		C411.7,268.1,411.7,364.6,411.7,461.1z"/>
	<path fill="#111111" d="M717.2,171.7c-32.4,48.8-64.8,97.6-97.2,146.4c31.8,47.7,63.7,95.4,95.5,143c-18,0-36,0-54,0
		c-28.4-46.9-56.8-93.9-56.8-93.9c-3.6-5.8-7.8-13.2-12.7-22h-1.1c-0.9,1.7-5.4,9-13.3,22c0,0-29,46.9-57.9,93.9
		c-17.8,0-35.6,0-53.4,0c32.9-47.3,65.8-94.6,98.7-141.9c-31.5-49.2-62.9-98.4-94.4-147.6c18,0,36,0,54,0c28,49.5,56,98.9,56,98.9
		c4.1,7.3,8.2,14.9,12.1,22.6c0,0,0.6,0,1.1,0c24.1-40.5,48.2-81,72.4-121.5C683.1,171.7,700.2,171.7,717.2,171.7z"/>
	<path fill="#111111" d="M890.5,289.1c33.4,0,66.8,0,66.8,0c-0.2-27-6.7-48-19.5-63.1c-12.8-15-30.5-22.5-53.2-22.5
		c-22,0-40.6,7.9-55.9,23.7c-15.3,15.8-24.8,36.4-28.4,61.9c-0.2,12.9-0.4,25.8-0.6,38.6c0.8,32.4,9.5,57.5,26.2,75.1
		s39.7,26.5,68.9,26.5c32.8,0,63-10.9,90.6-32.6v43.5c-25.6,18.5-59.3,27.7-101.4,27.7c-41.1,0-73.4-13.1-96.8-39.4
		c-23.5-26.3-35.2-63.3-35.2-111c0-45.1,12.8-81.8,38.4-110.1c25.6-28.4,57.4-42.6,95.4-42.6c38,0,67.4,12.2,88.1,36.7
		C994.6,226,1005,260,1005,303.5c0,0,0,12.1,0,24.3c-38.2,0-76.3,0-114.5,0C890.5,314.9,890.5,302,890.5,289.1z"/>
	<path fill="#111111" d="M1120.9,461.1c-15.4,0-30.8,0-46.2,0c0-143,0-285.9,0-428.9c15.4,0,30.8,0,46.2,0
		C1120.9,175.2,1120.9,318.2,1120.9,461.1z"/>
	<path fill="#111111" d="M1197.5,450.8v-49.5c25.2,18.7,52.9,28,83.1,28c40.6,0,60.9-13.7,60.9-41.1c0-7.7-1.7-14.3-5.2-19.6
		c-3.5-5.4-8.2-10.1-14.1-14.3c-5.9-4.1-12.8-7.9-20.8-11.2c-8-3.3-16.6-6.7-25.8-10.3c-12.8-5.1-24-10.2-33.6-15.4
		c-9.7-5.2-17.7-11-24.2-17.5c-6.5-6.5-11.3-13.9-14.6-22.2c-3.3-8.3-4.9-18-4.9-29.1c0-13.6,3.1-25.6,9.3-36
		c6.2-10.5,14.5-19.2,24.9-26.3c10.4-7.1,22.2-12.4,35.5-16c13.3-3.6,27-5.4,41.1-5.4c25.1,0,47.5,4.3,67.3,13v46.9
		c-21.2-14.1-45.7-21.2-73.3-21.2c-8.7,0-16.5,1-23.4,3c-7,2-12.9,4.8-17.9,8.4c-5,3.6-8.8,7.9-11.6,13c-2.7,5-4.1,10.6-4.1,16.7
		c0,7.5,1.4,13.9,4.1,18.9c2.7,5.1,6.7,9.6,12,13.6c5.3,4,11.6,7.5,19.1,10.7c7.5,3.2,16,6.7,25.6,10.5c12.8,4.9,24.2,9.9,34.3,15.1
		c10.1,5.2,18.8,11,25.9,17.5s12.6,14,16.5,22.5c3.8,8.5,5.8,18.6,5.8,30.3c0,14.3-3.2,26.8-9.5,37.3c-6.3,10.6-14.7,19.3-25.3,26.3
		c-10.5,7-22.7,12.2-36.4,15.6c-13.7,3.4-28.1,5.1-43.2,5.1C1245.1,467.9,1219.3,462.2,1197.5,450.8z"/>
	<path fill="#111111" d="M1657.4,448c-22.2,13.3-48.5,19.9-79,19.9c-41.2,0-74.5-13.4-99.8-40.3c-25.3-26.9-38-61.7-38-104.5
		c0-47.7,13.7-86,41-114.9c27.3-28.9,63.7-43.4,109.3-43.4c25.4,0,47.8,4.7,67.2,14.1v47.3c-21.4-15.2-44.4-22.7-68.8-22.7
		c-29.5,0-53.7,10.6-72.6,31.9c-18.9,21.3-28.3,49.2-28.3,83.8c0,34,8.9,60.9,26.6,80.6c17.7,19.7,41.5,29.5,71.4,29.5
		c25.2,0,48.8-8.3,71-25V448z"/>
	<path fill="#111111" d="M1879.5,217.9c-8.2-6.1-19.9-9.1-35.3-9.1c-19.9,0-36.6,9.3-50,28c-13.4,18.7-20.1,44.2-20.1,76.5
		c0,0,0,73.9,0,147.8c-15.4,0-30.8,0-46.2,0c0-96.5,0-193,0-289.5c15.4,0,30.8,0,46.2,0c0,19.7,0,39.5,0,59.2c0.6,0,1.1,0,1.1,0
		c6.6-20.3,16.8-36.1,30.5-47.5c13.7-11.4,28.9-17,45.8-17c12.1,0,21.4,1.3,27.9,3.9V217.9z"/>
	<path fill="#111111" d="M3054.9,461.1c-15.4,0-30.8,0-46.2,0c0-83.2,0-166.5,0-166.5c0-32.1-5-55.3-14.9-69.6
		c-9.9-14.3-26.6-21.5-50.1-21.5c-19.8,0-36.7,9.1-50.6,27.2c-13.9,18.1-20.8,39.8-20.8,65.1c0,0,0,82.7,0,165.3
		c-15.4,0-30.8,0-46.2,0c0-86.1,0-172.1,0-172.1c0-57-22-85.5-66.1-85.5c-20.4,0-37.2,8.5-50.5,25.6c-13.2,17.1-19.8,39.3-19.8,66.7
		c0,0,0,82.7,0,165.3c-15.4,0-30.8,0-46.2,0c0-96.5,0-193,0-289.5c15.4,0,30.8,0,46.2,0c0,15.1,0,30.3,0,45.4c0.6,0,1.1,0,1.1,0
		c20.6-34.8,50.6-52.2,90.1-52.2c19.8,0,37.1,5.5,51.8,16.4c14.7,11,24.8,25.3,30.3,43.1c21.5-39.7,53.6-59.6,96.2-59.6
		c63.8,0,95.7,39.3,95.7,117.9C3054.9,282.7,3054.9,371.9,3054.9,461.1z"/>
	<path fill="#111111" d="M2313.6,221c20.5-18.4,68.6-56.3,114.2-56.3c44.5,0,80.4,12.4,103.9,38.7s35.2,63.3,35.2,111
		c0,45.1-2.7,62-5.4,79c-49.4,36.7-98.8,73.4-116.9,73.7c-38,0-112.9-17.2-112.6-79.7c0.3-62.5,63.2-83.2,97.5-83.2
		c0.3,12.9-0.3,25.8,0,38.6c-34.4,5.3-43.1,27.7-42.7,43.7c0.4,16,24.2,29.9,46.9,29.9c10.6-0.6,46.7-26.7,82.8-52.8
		c1.7-17.8,3.3-35.6,2.6-59.4c-0.7-23.8-9.5-57.5-26.2-75.1c-16.7-17.6-36.5-26.9-66.9-24.4c-34.1,2.8-66.5,33.3-87.1,50.9
		c-52.2,44.5-137.2,143.7-178,172.3c-40.8,28.6-77,40.1-119.1,40.1c-41.1,0-73.4-13.1-96.8-39.4c-23.5-26.3-35.2-63.3-35.2-111
		c0-45.1,12.8-81.8,38.4-110.1c25.6-28.4,57.4-42.6,95.4-42.6c38,0,67.4,12.2,88.1,36.7c20.8,24.5,31.2,58.4,31.2,101.9
		c0,0,0,12.1,0,24.3c-41,0-81.9,0-122.9,0c0-12.9,0-25.8,0-38.6c37.6,0,75.1,0,75.1,0c-0.2-27-6.7-48-19.5-63.1
		c-12.8-15-30.5-22.5-53.2-22.5c-22,0-40.6,7.9-55.9,23.7c-15.3,15.8-24.8,36.4-28.4,61.9c-0.2,12.9-0.4,25.8-0.6,38.6
		c0.8,32.4,9.5,57.5,26.2,75.1c16.7,17.6,34.9,25.2,64.2,25.2c32.8,0,54.9-9.6,82.8-27.5C2158.6,382.7,2257.9,270.9,2313.6,221z"/>
	<path fill="#111111" d="M365.5,122.2c0-15.4,0-30.8,0-46.2c15.4,0,30.8,0,46.2,0c0,15.4,0,30.8,0,46.2
		C396.3,122.2,380.9,122.2,365.5,122.2z"/>
	<path fill="#111111" d="M2563.9,426c0,11.7,0,23.4,0,35.1c-15.4,0-30.8,0-46.2,0C2533.1,449.4,2548.5,437.7,2563.9,426z"/>
	<path fill="#111111" d="M3100.8,463.2c-2.6,0-4.8-0.9-6.7-2.8c-1.8-1.9-2.8-4.1-2.8-6.7c0-2.6,0.9-4.9,2.8-6.7
		c1.8-1.9,4.1-2.8,6.7-2.8c2.7,0,4.9,0.9,6.8,2.8c1.9,1.9,2.8,4.1,2.8,6.7c0,2.6-0.9,4.8-2.8,6.7
		C3105.8,462.2,3103.5,463.2,3100.8,463.2z"/>
	<path fill="#111111" d="M3205.7,461.1c-4.6,0-9.2,0-13.9,0c0-24.8,0-49.6,0-49.6c0-18.5-6.7-27.7-20.2-27.7c-7,0-12.7,2.6-17.3,7.9
		c-4.6,5.2-6.8,11.8-6.8,19.8c0,0,0,24.8,0,49.6c-4.6,0-9.2,0-13.9,0c0-28.9,0-57.9,0-86.8c4.6,0,9.2,0,13.9,0c0,4.8,0,9.5,0,14.3
		c0.2,0,0.3,0,0.3,0c6.6-10.9,16.1-16.3,28.5-16.3c9.5,0,16.8,3.1,21.8,9.2c5,6.1,7.6,15,7.6,26.6
		C3205.7,408,3205.7,434.6,3205.7,461.1z"/>
	<path fill="#111111" d="M3240.3,421.1c0.2,9.7,2.8,17.2,7.9,22.5c5,5.3,11.9,7.9,20.7,7.9c9.9,0,18.9-3.3,27.2-9.8v13.1
		c-7.7,5.5-17.8,8.3-30.4,8.3c-12.3,0-22-3.9-29-11.8c-7-7.9-10.6-19-10.6-33.3c0-13.5,3.8-24.5,11.5-33s17.2-12.8,28.6-12.8
		c11.4,0,20.2,3.7,26.4,11c6.2,7.3,9.4,17.5,9.4,30.6c0,0,0,3.6,0,7.3c-11.7,0-23.5,0-35.2,0c0-3.9,0-7.7,0-11.6
		c10.4,0,20.9,0,20.9,0c-0.1-8.1-2-14.4-5.8-18.9c-3.8-4.5-9.2-6.8-16-6.8c-6.6,0-12.2,2.4-16.8,7.1c-4.6,4.7-7.4,10.9-8.5,18.6
		C3240.4,413.4,3240.3,417.2,3240.3,421.1z"/>
	<path fill="#111111" d="M3363,460.5c-3.3,1.8-7.6,2.7-12.9,2.7c-15.2,0-22.8-8.5-22.8-25.6c0,0,0-25.8,0-51.7c-5,0-10,0-15,0
		c0-3.9,0-7.7,0-11.6c5,0,10,0,15,0c0-7.1,0-14.1,0-21.2c4.6-1.5,9.2-3,13.9-4.5c0,8.6,0,17.1,0,25.7c7.3,0,14.5,0,21.8,0
		c0,3.9,0,7.7,0,11.6c-7.3,0-14.5,0-21.8,0c0,24.7,0,49.4,0,49.4c0,5.9,1,10.1,3,12.6c2,2.5,5.2,3.8,9.8,3.8c3.5,0,6.5-1,9.1-3
		V460.5z"/>
	<rect x="26.3" y="172" fill="#111111" width="46.5" height="422"/>
	<path fill="#111111" d="M72.5,419.7c0.6,0,1.1,0,1.1,0c20.4,32.2,49.4,48.3,87,48.3c41,0,73.3-14.6,96.9-43.7
		c23.6-29.1,35.4-67.9,35.4-116.3c0-43.5-10.5-78.3-31.5-104.2c-21-25.9-50.2-38.9-87.6-38.9c-44,0-74.7,15.6-100.3,43.3 M221.3,397
		c-16,21.6-38,32.3-66.1,32.3c-24,0-43.8-8.4-59.3-25.1s-23.4-37.1-23.4-61.1v-40.6c0-28.4,8.2-52,24.6-70.8
		c16.4-18.8,38.1-28.2,65.1-28.2c25.5,0,45.7,9.2,60.6,27.5c14.9,18.3,22.4,43.7,22.4,76C245.2,345.4,237.2,375.4,221.3,397z"/>
	<path fill="#111111" d="M412.7,461.1c-15.4,0-30.8,0-46.2,0c0-96.5,0-193,0-289.5c15.4,0,30.8,0,46.2,0
		C412.7,268.1,412.7,364.6,412.7,461.1z"/>
	<path fill="#111111" d="M718.2,171.7c-32.4,48.8-64.8,97.6-97.2,146.4c31.8,47.7,63.7,95.4,95.5,143c-18,0-36,0-54,0
		c-28.4-46.9-56.8-93.9-56.8-93.9c-3.6-5.8-7.8-13.2-12.7-22h-1.1c-0.9,1.7-5.4,9-13.3,22c0,0-29,46.9-57.9,93.9
		c-17.8,0-35.6,0-53.4,0c32.9-47.3,65.8-94.6,98.7-141.9c-31.5-49.2-62.9-98.4-94.4-147.6c18,0,36,0,54,0c28,49.5,56,98.9,56,98.9
		c4.1,7.3,8.2,14.9,12.1,22.6c0,0,0.6,0,1.1,0c24.1-40.5,48.2-81,72.4-121.5C684.1,171.7,701.2,171.7,718.2,171.7z"/>
	<path fill="#111111" d="M891.5,289.1c33.4,0,66.8,0,66.8,0c-0.2-27-6.7-48-19.5-63.1c-12.8-15-30.5-22.5-53.2-22.5
		c-22,0-40.6,7.9-55.9,23.7c-15.3,15.8-24.8,36.4-28.4,61.9c-0.2,12.9-0.4,25.8-0.6,38.6c0.8,32.4,9.5,57.5,26.2,75.1
		s39.7,26.5,68.9,26.5c32.8,0,63-10.9,90.6-32.6v43.5c-25.6,18.5-59.3,27.7-101.4,27.7c-41.1,0-73.4-13.1-96.8-39.4
		c-23.5-26.3-35.2-63.3-35.2-111c0-45.1,12.8-81.8,38.4-110.1c25.6-28.4,57.4-42.6,95.4-42.6c38,0,67.4,12.2,88.1,36.7
		C995.6,226,1006,260,1006,303.5c0,0,0,12.1,0,24.3c-38.2,0-76.3,0-114.5,0C891.5,314.9,891.5,302,891.5,289.1z"/>
	<path fill="#111111" d="M1121.9,461.1c-15.4,0-30.8,0-46.2,0c0-143,0-285.9,0-428.9c15.4,0,30.8,0,46.2,0
		C1121.9,175.2,1121.9,318.2,1121.9,461.1z"/>
	<path fill="#111111" d="M1198.5,450.8v-49.5c25.2,18.7,52.9,28,83.1,28c40.6,0,60.9-13.7,60.9-41.1c0-7.7-1.7-14.3-5.2-19.6
		c-3.5-5.4-8.2-10.1-14.1-14.3c-5.9-4.1-12.8-7.9-20.8-11.2c-8-3.3-16.6-6.7-25.8-10.3c-12.8-5.1-24-10.2-33.6-15.4
		c-9.7-5.2-17.7-11-24.2-17.5c-6.5-6.5-11.3-13.9-14.6-22.2c-3.3-8.3-4.9-18-4.9-29.1c0-13.6,3.1-25.6,9.3-36
		c6.2-10.5,14.5-19.2,24.9-26.3c10.4-7.1,22.2-12.4,35.5-16c13.3-3.6,27-5.4,41.1-5.4c25.1,0,47.5,4.3,67.3,13v46.9
		c-21.2-14.1-45.7-21.2-73.3-21.2c-8.7,0-16.5,1-23.4,3c-7,2-12.9,4.8-17.9,8.4c-5,3.6-8.8,7.9-11.6,13c-2.7,5-4.1,10.6-4.1,16.7
		c0,7.5,1.4,13.9,4.1,18.9c2.7,5.1,6.7,9.6,12,13.6c5.3,4,11.6,7.5,19.1,10.7c7.5,3.2,16,6.7,25.6,10.5c12.8,4.9,24.2,9.9,34.3,15.1
		c10.1,5.2,18.8,11,25.9,17.5s12.6,14,16.5,22.5c3.8,8.5,5.8,18.6,5.8,30.3c0,14.3-3.2,26.8-9.5,37.3c-6.3,10.6-14.7,19.3-25.3,26.3
		c-10.5,7-22.7,12.2-36.4,15.6c-13.7,3.4-28.1,5.1-43.2,5.1C1246.1,467.9,1220.3,462.2,1198.5,450.8z"/>
	<path fill="#111111" d="M1658.4,448c-22.2,13.3-48.5,19.9-79,19.9c-41.2,0-74.5-13.4-99.8-40.3c-25.3-26.9-38-61.7-38-104.5
		c0-47.7,13.7-86,41-114.9c27.3-28.9,63.7-43.4,109.3-43.4c25.4,0,47.8,4.7,67.2,14.1v47.3c-21.4-15.2-44.4-22.7-68.8-22.7
		c-29.5,0-53.7,10.6-72.6,31.9c-18.9,21.3-28.3,49.2-28.3,83.8c0,34,8.9,60.9,26.6,80.6c17.7,19.7,41.5,29.5,71.4,29.5
		c25.2,0,48.8-8.3,71-25V448z"/>
	<path fill="#111111" d="M1880.5,217.9c-8.2-6.1-19.9-9.1-35.3-9.1c-19.9,0-36.6,9.3-50,28c-13.4,18.7-20.1,44.2-20.1,76.5
		c0,0,0,73.9,0,147.8c-15.4,0-30.8,0-46.2,0c0-96.5,0-193,0-289.5c15.4,0,30.8,0,46.2,0c0,19.7,0,39.5,0,59.2c0.6,0,1.1,0,1.1,0
		c6.6-20.3,16.8-36.1,30.5-47.5c13.7-11.4,28.9-17,45.8-17c12.1,0,21.4,1.3,27.9,3.9V217.9z"/>
	<path fill="#111111" d="M3055.9,461.1c-15.4,0-30.8,0-46.2,0c0-83.2,0-166.5,0-166.5c0-32.1-5-55.3-14.9-69.6
		c-9.9-14.3-26.6-21.5-50.1-21.5c-19.8,0-36.7,9.1-50.6,27.2c-13.9,18.1-20.8,39.8-20.8,65.1c0,0,0,82.7,0,165.3
		c-15.4,0-30.8,0-46.2,0c0-86.1,0-172.1,0-172.1c0-57-22-85.5-66.1-85.5c-20.4,0-37.2,8.5-50.5,25.6c-13.2,17.1-19.8,39.3-19.8,66.7
		c0,0,0,82.7,0,165.3c-15.4,0-30.8,0-46.2,0c0-96.5,0-193,0-289.5c15.4,0,30.8,0,46.2,0c0,15.1,0,30.3,0,45.4c0.6,0,1.1,0,1.1,0
		c20.6-34.8,50.6-52.2,90.1-52.2c19.8,0,37.1,5.5,51.8,16.4c14.7,11,24.8,25.3,30.3,43.1c21.5-39.7,53.6-59.6,96.2-59.6
		c63.8,0,95.7,39.3,95.7,117.9C3055.9,282.7,3055.9,371.9,3055.9,461.1z"/>
	<path fill="#111111" d="M2314.6,221c20.5-18.4,68.6-56.3,114.2-56.3c44.5,0,80.4,12.4,103.9,38.7s35.2,63.3,35.2,111
		c0,45.1-2.7,62-5.4,79c-49.4,36.7-98.8,73.4-116.9,73.7c-38,0-112.9-17.2-112.6-79.7c0.3-62.5,63.2-83.2,97.5-83.2
		c0.3,12.9-0.3,25.8,0,38.6c-34.4,5.3-43.1,27.7-42.7,43.7c0.4,16,24.2,29.9,46.9,29.9c10.6-0.6,46.7-26.7,82.8-52.8
		c1.7-17.8,3.3-35.6,2.6-59.4c-0.7-23.8-9.5-57.5-26.2-75.1c-16.7-17.6-36.5-26.9-66.9-24.4c-34.1,2.8-66.5,33.3-87.1,50.9
		c-52.2,44.5-137.2,143.7-178,172.3c-40.8,28.6-77,40.1-119.1,40.1c-41.1,0-73.4-13.1-96.8-39.4c-23.5-26.3-35.2-63.3-35.2-111
		c0-45.1,12.8-81.8,38.4-110.1c25.6-28.4,57.4-42.6,95.4-42.6c38,0,67.4,12.2,88.1,36.7c20.8,24.5,31.2,58.4,31.2,101.9
		c0,0,0,12.1,0,24.3c-41,0-81.9,0-122.9,0c0-12.9,0-25.8,0-38.6c37.6,0,75.1,0,75.1,0c-0.2-27-6.7-48-19.5-63.1
		c-12.8-15-30.5-22.5-53.2-22.5c-22,0-40.6,7.9-55.9,23.7c-15.3,15.8-24.8,36.4-28.4,61.9c-0.2,12.9-0.4,25.8-0.6,38.6
		c0.8,32.4,9.5,57.5,26.2,75.1c16.7,17.6,34.9,25.2,64.2,25.2c32.8,0,54.9-9.6,82.8-27.5C2159.6,382.7,2258.9,270.9,2314.6,221z"/>
	<path fill="#111111" d="M366.5,122.2c0-15.4,0-30.8,0-46.2c15.4,0,30.8,0,46.2,0c0,15.4,0,30.8,0,46.2
		C397.3,122.2,381.9,122.2,366.5,122.2z"/>
	<path fill="#111111" d="M2564.9,426c0,11.7,0,23.4,0,35.1c-15.4,0-30.8,0-46.2,0C2534.1,449.4,2549.5,437.7,2564.9,426z"/>
	<path fill="#111111" d="M3101.8,463.2c-2.6,0-4.8-0.9-6.7-2.8c-1.8-1.9-2.8-4.1-2.8-6.7c0-2.6,0.9-4.9,2.8-6.7
		c1.8-1.9,4.1-2.8,6.7-2.8c2.7,0,4.9,0.9,6.8,2.8c1.9,1.9,2.8,4.1,2.8,6.7c0,2.6-0.9,4.8-2.8,6.7
		C3106.8,462.2,3104.5,463.2,3101.8,463.2z"/>
	<path fill="#111111" d="M3206.7,461.1c-4.6,0-9.2,0-13.9,0c0-24.8,0-49.6,0-49.6c0-18.5-6.7-27.7-20.2-27.7c-7,0-12.7,2.6-17.3,7.9
		c-4.6,5.2-6.8,11.8-6.8,19.8c0,0,0,24.8,0,49.6c-4.6,0-9.2,0-13.9,0c0-28.9,0-57.9,0-86.8c4.6,0,9.2,0,13.9,0c0,4.8,0,9.5,0,14.3
		c0.2,0,0.3,0,0.3,0c6.6-10.9,16.1-16.3,28.5-16.3c9.5,0,16.8,3.1,21.8,9.2c5,6.1,7.6,15,7.6,26.6
		C3206.7,408,3206.7,434.6,3206.7,461.1z"/>
	<path fill="#111111" d="M3241.3,421.1c0.2,9.7,2.8,17.2,7.9,22.5c5,5.3,11.9,7.9,20.7,7.9c9.9,0,18.9-3.3,27.2-9.8v13.1
		c-7.7,5.5-17.8,8.3-30.4,8.3c-12.3,0-22-3.9-29-11.8c-7-7.9-10.6-19-10.6-33.3c0-13.5,3.8-24.5,11.5-33s17.2-12.8,28.6-12.8
		c11.4,0,20.2,3.7,26.4,11c6.2,7.3,9.4,17.5,9.4,30.6c0,0,0,3.6,0,7.3c-11.7,0-23.5,0-35.2,0c0-3.9,0-7.7,0-11.6
		c10.4,0,20.9,0,20.9,0c-0.1-8.1-2-14.4-5.8-18.9c-3.8-4.5-9.2-6.8-16-6.8c-6.6,0-12.2,2.4-16.8,7.1c-4.6,4.7-7.4,10.9-8.5,18.6
		C3241.4,413.4,3241.3,417.2,3241.3,421.1z"/>
	<path fill="#111111" d="M3364,460.5c-3.3,1.8-7.6,2.7-12.9,2.7c-15.2,0-22.8-8.5-22.8-25.6c0,0,0-25.8,0-51.7c-5,0-10,0-15,0
		c0-3.9,0-7.7,0-11.6c5,0,10,0,15,0c0-7.1,0-14.1,0-21.2c4.6-1.5,9.2-3,13.9-4.5c0,8.6,0,17.1,0,25.7c7.3,0,14.5,0,21.8,0
		c0,3.9,0,7.7,0,11.6c-7.3,0-14.5,0-21.8,0c0,24.7,0,49.4,0,49.4c0,5.9,1,10.1,3,12.6c2,2.5,5.2,3.8,9.8,3.8c3.5,0,6.5-1,9.1-3
		V460.5z"/>
	<rect x="27.3" y="172" fill="#111111" width="46.5" height="422"/>
</g>
</svg>
